<svg width="112" height="25" viewBox="0 0 112 25" fill="none" xmlns="http://www.w3.org/2000/svg">
  <path d="M26.7529 3.71109C25.3072 2.26538 23.3413 1.5 21.0676 1.5C20.4031 1.5022 19.7401 1.56414 19.0867 1.68509C18.0851 1.86991 17.1082 2.16953 16.1752 2.57803C17.3577 3.29371 18.4494 4.14949 19.4268 5.12679C19.4894 5.18932 19.5519 5.25185 19.6094 5.31438L19.752 5.28686C20.1842 5.20589 20.6229 5.16403 21.0626 5.1618C22.3558 5.1618 23.4313 5.557 24.1767 6.29987C25.1772 7.30036 25.5298 8.86613 25.1772 10.727C24.952 11.8894 24.529 13.0045 23.9266 14.0237C23.4948 14.7635 22.9922 15.4596 22.4258 16.1022C22.4289 15.4311 22.3695 14.7612 22.2482 14.1012C21.748 11.2698 20.1772 8.43342 17.8586 6.11228C15.5399 3.79113 12.7085 2.22536 9.87712 1.7101C9.22758 1.59201 8.56884 1.53174 7.90865 1.53001C5.63253 1.53001 3.65655 2.29539 2.21584 3.74361C0.349918 5.60953 -0.372939 8.33087 0.182334 11.4074C0.682581 14.2363 2.25336 17.0727 4.572 19.3938C6.89065 21.715 9.72954 23.2732 12.5609 23.786H12.626C13.212 23.8986 13.8076 23.9547 14.4044 23.9536H14.5269C15.2331 23.9561 15.9373 23.8772 16.6254 23.7185C19.3768 23.1607 22.1282 21.6249 24.3793 19.3663C26.7029 17.0427 28.2662 14.2013 28.7789 11.3624C29.3417 8.30586 28.6214 5.58201 26.7529 3.71109ZM18.6539 14.7415C18.9891 16.6 18.6264 18.1707 17.6334 19.1637C17.0675 19.7097 16.3501 20.0723 15.5749 20.2042C15.192 20.2665 14.8048 20.2991 14.4169 20.3018C14.3043 20.3018 14.1967 20.3018 14.0867 20.3018C13.9766 20.3018 13.8016 20.2793 13.6565 20.2618L13.5289 20.2467L13.4614 20.2342C12.6489 20.116 11.894 19.746 11.3028 19.1762C11.153 19.022 11.0174 18.8545 10.8976 18.676C10.5913 18.2226 10.3795 17.7122 10.2748 17.1752C10.1235 16.3689 10.1286 15.541 10.2898 14.7365C10.6725 12.628 11.8756 10.4844 13.679 8.67354C13.9341 8.41841 14.1968 8.17413 14.4669 7.94068C14.7445 8.1783 15.0147 8.42592 15.2773 8.69105C17.0757 10.4919 18.2738 12.6405 18.6539 14.744V14.7415ZM3.78411 10.7571C3.44894 8.89615 3.81163 7.32538 4.80462 6.33239C5.55499 5.58202 6.62802 5.19182 7.92366 5.19182C8.36084 5.19332 8.797 5.23434 9.2268 5.31438C9.92261 5.4423 10.6021 5.64699 11.2528 5.92468L11.0877 6.08476C8.93415 8.24082 7.43341 10.8371 6.81811 13.4659C6.76808 13.6735 6.72556 13.8786 6.68805 14.0837C6.56617 14.7513 6.50588 15.4286 6.50796 16.1072C5.07225 14.4664 4.11677 12.5955 3.78411 10.7596V10.7571Z" fill="#EA2667"/>
  <path d="M45.1623 6.10435C44.0891 5.45425 42.8552 5.11803 41.6006 5.13387C40.6238 5.11575 39.6568 5.33008 38.7792 5.75918C38.1562 6.06719 37.6042 6.50163 37.1584 7.03481V5.43902H33.9668V24.4334H37.3385V17.9927C37.7552 18.4353 38.2538 18.7929 38.8067 19.0457C39.6748 19.444 40.6205 19.6448 41.5756 19.6335C42.8409 19.6542 44.0871 19.3225 45.1748 18.6756C46.2263 18.0413 47.0897 17.1382 47.6761 16.0593C48.2945 14.9334 48.6115 13.6669 48.5965 12.3825C48.6143 11.1009 48.297 9.83689 47.6761 8.71564C47.0818 7.63971 46.2149 6.73912 45.1623 6.10435ZM44.6271 14.5535C44.3119 15.1655 43.8285 15.6749 43.2339 16.0217C42.613 16.3765 41.9079 16.5572 41.1929 16.5445C40.5024 16.5507 39.8231 16.3701 39.2269 16.0217C38.633 15.6747 38.1505 15.1654 37.8362 14.5535C37.4933 13.882 37.3215 13.1363 37.336 12.3825C37.3237 11.6376 37.4956 10.9013 37.8362 10.2389C38.1484 9.62511 38.6256 9.11057 39.2141 8.75311C39.8027 8.39564 40.4793 8.20943 41.1679 8.21539C41.8905 8.19892 42.6029 8.38894 43.2214 8.76317C43.8066 9.12725 44.2868 9.6376 44.6146 10.2439C44.9593 10.9003 45.1314 11.6337 45.1148 12.3749C45.1332 13.1301 44.9657 13.8783 44.6271 14.5535Z" fill="white"/>
  <path d="M54.3219 5.88733C53.7737 6.22081 53.3448 6.71889 53.0963 7.31053V5.4396H49.9072V19.329H53.2764V11.5926C53.2764 10.5371 53.5699 9.72005 54.1568 9.14143C54.4595 8.85054 54.8177 8.62372 55.2101 8.47459C55.6025 8.32545 56.021 8.25706 56.4404 8.27351H57.641V5.28703H56.8256C55.9527 5.26301 55.089 5.4701 54.3219 5.88733Z" fill="white"/>
  <path d="M69.8223 7.15027C69.2367 6.50898 68.5179 6.00359 67.7162 5.66954C66.8014 5.29659 65.82 5.11444 64.8323 5.13427C63.6021 5.11967 62.3913 5.44141 61.3306 6.06473C60.283 6.68193 59.4195 7.56794 58.8294 8.631C58.204 9.77215 57.8876 11.0568 57.9114 12.3578C57.8957 13.639 58.2028 14.9034 58.8043 16.0347C59.3827 17.1227 60.2476 18.0318 61.3056 18.6634C62.4424 19.3277 63.7411 19.6636 65.0574 19.6339C65.9524 19.6436 66.8421 19.4963 67.6862 19.1987C68.4505 18.9311 69.1568 18.5202 69.7672 17.9881C70.3217 17.5134 70.7548 16.9131 71.0304 16.2373L68.324 14.9091C68.0027 15.4727 67.5328 15.9372 66.9656 16.2521C66.3984 16.567 65.7557 16.7202 65.1074 16.695C64.3929 16.7093 63.6891 16.5193 63.0789 16.1472C62.4945 15.7851 62.0319 15.2563 61.7508 14.629C61.5694 14.2243 61.4562 13.7924 61.4156 13.3508H71.4206C71.479 13.1333 71.5216 12.9117 71.5481 12.688C71.583 12.4344 71.6006 12.1787 71.6007 11.9226C71.6075 11.029 71.4515 10.1416 71.1404 9.30383C70.8409 8.50923 70.3936 7.77851 69.8223 7.15027ZM62.9689 8.43841C63.5241 8.08235 64.173 7.90031 64.8323 7.91565C65.4937 7.90117 66.1438 8.08878 66.6957 8.45342C67.2167 8.80187 67.6142 9.30614 67.8313 9.89412C67.9365 10.1768 67.9998 10.4735 68.0189 10.7746H61.5032C61.5582 10.4949 61.642 10.2216 61.7533 9.95916C61.9964 9.34158 62.42 8.81162 62.9689 8.43841Z" fill="white"/>
  <path d="M80.2174 16.543C79.7706 16.5575 79.3262 16.472 78.9167 16.2929C78.5823 16.1446 78.3075 15.8883 78.1363 15.565C77.9578 15.1862 77.8721 14.7704 77.8862 14.3519V8.42397H81.1028V5.4375H77.8937V2.27344H74.5245V3.31895C74.5245 4.01763 74.3378 4.54539 73.9643 4.90224C73.5273 5.28164 72.9586 5.4739 72.381 5.4375H72.1309V8.42397H74.5295V14.552C74.5295 16.1011 74.9639 17.3092 75.8327 18.1763C76.7014 19.0434 77.9162 19.4744 79.477 19.4694C79.7271 19.4694 80.0173 19.4569 80.3324 19.4294C80.6476 19.4019 80.9152 19.3744 81.1378 19.3419V16.4679L80.6651 16.5205C80.5163 16.5359 80.3669 16.5435 80.2174 16.543Z" fill="white"/>
  <path d="M93.9257 8.16885V5.4375H82.7176V8.42397H89.451L82.335 16.593V19.3244H93.9507V16.3379H87.0073L93.9257 8.16885Z" fill="white"/>
  <path d="M105.757 7.15017C105.172 6.50889 104.453 6.0035 103.651 5.66945C102.738 5.29717 101.758 5.11503 100.772 5.13418C99.5478 5.11682 98.3418 5.43371 97.2841 6.05072C96.2263 6.66774 95.3569 7.56154 94.7693 8.63591C94.1431 9.77681 93.8258 11.0615 93.8488 12.3627C93.8331 13.6439 94.1402 14.9083 94.7418 16.0396C95.3201 17.1276 96.1851 18.0367 97.243 18.6684C98.3795 19.3333 99.6785 19.6693 100.995 19.6388C101.89 19.6485 102.78 19.5012 103.624 19.2036C104.388 18.936 105.094 18.5251 105.705 17.993C106.255 17.5169 106.683 16.9168 106.955 16.2422L104.274 14.9115C103.953 15.4751 103.483 15.9396 102.916 16.2545C102.348 16.5694 101.706 16.7226 101.057 16.6974C100.343 16.7117 99.6391 16.5217 99.0289 16.1496C98.4445 15.7875 97.9819 15.2587 97.7007 14.6314C97.5193 14.2267 97.4061 13.7948 97.3656 13.3532H107.37C107.429 13.1357 107.472 12.9141 107.498 12.6904C107.533 12.4368 107.551 12.1811 107.551 11.925C107.559 11.0313 107.403 10.1437 107.09 9.30624C106.787 8.50957 106.334 7.7779 105.757 7.15017ZM98.9038 8.43832C99.4604 8.0813 100.111 7.89921 100.772 7.91555C101.434 7.90108 102.084 8.08868 102.636 8.45332C103.157 8.80178 103.554 9.30605 103.771 9.89403C103.876 10.1768 103.94 10.4734 103.959 10.7745H97.4556C97.513 10.4954 97.5967 10.2223 97.7057 9.95906C97.9451 9.34435 98.3622 8.81491 98.9038 8.43832Z" fill="white"/>
  <path d="M112 0H108.631V19.3245H112V0Z" fill="white"/>
</svg>
